# File created by Blade
# Date/Time:  Tue Jan 27 20:12:02 2015
# Frame Rate: 120.000 fps
#------------------------------------------------------
:FULLY-SPECIFIED
:DEGREES
2578
root 7.941350 32.364754 -3.576430 2.325917 -18.338186 -3.605053
Spine 5.198048 16.116659 -7.614473
Head 36.472793 -11.156181 -0.778510
LeftShoulder -19.068664 4.950951 29.853827
LeftArm -20.668168 -42.056714 -59.891903
LeftForeArm -11.927591 -0.000000 97.706122
LeftHand 17.479023 -0.000000 6.424615
LeftHandThumb1 -26.253704 0.000000 33.147579
RightShoulder -20.401097 -25.547034 -21.881580
RightArm 6.610722 -33.166834 92.438673
RightForeArm -24.196259 -0.000000 103.594643
RightHand 18.679783 -0.000000 -0.269081
RightHandThumb1 -24.326973 -0.000000 -32.862282
LeftUpLeg 6.254738 9.596304 -5.276962
LeftLeg -4.811740 -0.000000 0.000000
LeftFoot -18.287391 22.704730 -17.181987
LeftToeBase 21.944246 -0.000000 -0.000000
RightUpLeg 25.119071 -63.835670 -36.343616
RightLeg 80.027289 -0.000000 -0.000000
RightFoot 23.085024 -28.062023 16.592867
RightToeBase 16.400559 -0.000000 -0.000000
2579
root 7.935310 32.368392 -3.578048 2.340479 -18.429822 -3.650003
Spine 5.285294 16.102464 -7.611390
Head 36.484086 -10.970914 -0.719435
LeftShoulder -19.065518 4.930143 29.841583
LeftArm -20.752661 -42.105892 -59.767031
LeftForeArm -11.881199 -0.000000 97.663539
LeftHand 17.414568 -0.000000 6.905430
LeftHandThumb1 -26.253704 0.000000 33.147579
RightShoulder -20.360646 -25.478684 -21.923264
RightArm 6.571324 -33.197722 92.510473
RightForeArm -24.184939 -0.000000 103.637491
RightHand 18.677613 -0.000000 -0.271835
RightHandThumb1 -24.326973 -0.000000 -32.862282
LeftUpLeg 6.276131 9.614061 -5.235187
LeftLeg -4.844073 -0.000000 0.000000
LeftFoot -18.292295 22.718320 -17.289275
LeftToeBase 21.729008 -0.000000 -0.000000
RightUpLeg 25.202622 -63.790520 -36.276891
RightLeg 80.176502 -0.000000 -0.000000
RightFoot 23.205098 -28.015771 16.568066
RightToeBase 16.497972 -0.000000 -0.000000
2580
root 7.928629 32.372371 -3.581856 2.396486 -18.536620 -3.710904
Spine 5.315025 16.100955 -7.617224
Head 36.545629 -10.898595 -0.691562
LeftShoulder -19.072190 4.935284 29.830665
LeftArm -20.840855 -42.165313 -59.647652
LeftForeArm -11.888686 -0.000000 97.628192
LeftHand 17.454741 -0.000000 7.060536
LeftHandThumb1 -26.253704 0.000000 33.147579
RightShoulder -20.330033 -25.484675 -21.925673
RightArm 6.606011 -33.227568 92.532103
RightForeArm -24.152680 -0.000000 103.672665
RightHand 18.665756 -0.000000 -0.261013
RightHandThumb1 -24.326973 -0.000000 -32.862282
LeftUpLeg 6.257669 9.657916 -5.177954
LeftLeg -4.877412 -0.000000 0.000000
LeftFoot -18.288989 22.802375 -17.238960
LeftToeBase 21.807351 -0.000000 -0.000000
RightUpLeg 25.316829 -63.816113 -36.273313
RightLeg 80.335640 -0.000000 -0.000000
RightFoot 23.301121 -28.021648 16.449832
RightToeBase 16.672722 -0.000000 -0.000000
2581
root 7.924964 32.374159 -3.584415 2.444825 -18.641822 -3.743666
Spine 5.338203 16.107330 -7.642854
Head 36.582057 -10.816376 -0.644809
LeftShoulder -19.083875 4.969788 29.825006
LeftArm -20.869051 -42.231021 -59.589198
LeftForeArm -11.919176 -0.000000 97.578773
LeftHand 17.574436 -0.000000 7.110959
LeftHandThumb1 -26.253704 0.000000 33.147579
RightShoulder -20.313680 -25.491877 -21.943933
RightArm 6.626897 -33.271144 92.559732
RightForeArm -24.137838 -0.000000 103.699472
RightHand 18.688217 -0.000000 -0.280477
RightHandThumb1 -24.326973 -0.000000 -32.862282
LeftUpLeg 6.238606 9.703846 -5.152691
LeftLeg -4.910769 -0.000000 0.000000
LeftFoot -18.290412 22.866652 -17.213084
LeftToeBase 21.874692 -0.000000 -0.000000
RightUpLeg 25.361606 -63.821530 -36.224547
RightLeg 80.507435 -0.000000 -0.000000
RightFoot 23.262334 -28.105228 16.524912
RightToeBase 16.522419 -0.000000 -0.000000
2582
root 7.921909 32.375229 -3.586497 2.488093 -18.750580 -3.773359
Spine 5.364371 16.106360 -7.668759
Head 36.639374 -10.708153 -0.615560
LeftShoulder -19.078104 4.946581 29.819358
LeftArm -21.033161 -42.270792 -59.423695
LeftForeArm -12.053293 -0.000000 97.578600
LeftHand 17.578563 0.000000 7.159231
LeftHandThumb1 -26.253704 0.000000 33.147579
RightShoulder -20.307532 -25.500464 -21.957642
RightArm 6.667189 -33.340089 92.563838
RightForeArm -24.134332 0.000000 103.717657
RightHand 18.686959 0.000000 -0.307101
RightHandThumb1 -24.326973 -0.000000 -32.862282
LeftUpLeg 6.233530 9.770977 -5.130863
LeftLeg -4.962045 -0.000000 0.000000
LeftFoot -18.268909 22.907522 -17.166379
LeftToeBase 21.865269 -0.000000 -0.000000
RightUpLeg 25.402854 -63.820291 -36.184710
RightLeg 80.686497 -0.000000 -0.000000
RightFoot 23.284989 -28.071972 16.465779
RightToeBase 16.455519 -0.000000 -0.000000
